<svg xmlns="http://www.w3.org/2000/svg" width="16" height="16" viewBox="0 0 16 16" fill="none"><mask id="mask0_1708_3081" style="mask-type:alpha" maskUnits="userSpaceOnUse" x="0" y="0" width="16" height="16"><rect width="16" height="16" fill="#F3F4F4"></rect></mask><g mask="url(#mask0_1708_3081)"><path fill-rule="evenodd" clip-rule="evenodd" d="M8 1.23284C4.26146 1.23284 1.23077 4.26353 1.23077 8.00208C1.23077 9.40348 1.65596 10.7037 2.38428 11.7831L1.36404 12.4715C0.502814 11.1952 0 9.6564 0 8.00208C0 3.5838 3.58172 0.0020752 8 0.0020752C12.4183 0.0020752 16 3.5838 16 8.00208C16 9.6564 15.4972 11.1952 14.636 12.4715L13.6157 11.7831C14.344 10.7037 14.7692 9.40348 14.7692 8.00208C14.7692 4.26353 11.7385 1.23284 8 1.23284Z" fill="black"></path><path fill-rule="evenodd" clip-rule="evenodd" d="M7.9999 3.64312C5.7597 3.64312 3.94366 5.45916 3.94366 7.69937C3.94366 8.52483 4.18958 9.29099 4.61201 9.93085L3.5849 10.609C3.03372 9.77408 2.71289 8.77325 2.71289 7.69937C2.71289 4.77943 5.07997 2.41235 7.9999 2.41235C10.9198 2.41235 13.2869 4.77943 13.2869 7.69937C13.2869 8.77325 12.9661 9.77408 12.4149 10.609L11.3878 9.93085C11.8102 9.29099 12.0561 8.52483 12.0561 7.69937C12.0561 5.45916 10.2401 3.64312 7.9999 3.64312Z" fill="black"></path><path fill-rule="evenodd" clip-rule="evenodd" d="M9.23062 7.84411C9.23062 8.52384 8.67959 9.07488 7.99985 9.07488C7.32012 9.07488 6.76908 8.52384 6.76908 7.84411C6.76908 7.16437 7.32012 6.61334 7.99985 6.61334C8.67959 6.61334 9.23062 7.16437 9.23062 7.84411ZM10.4614 7.84411C10.4614 9.20358 9.35932 10.3056 7.99985 10.3056C6.64038 10.3056 5.53831 9.20358 5.53831 7.84411C5.53831 6.48464 6.64038 5.38257 7.99985 5.38257C9.35932 5.38257 10.4614 6.48464 10.4614 7.84411ZM7.99985 10.921H7.98672C7.18876 10.921 6.32773 10.921 5.39684 11.0319C4.01245 11.1967 3.20356 12.7468 4.13852 13.9313C4.89424 14.8887 6.16565 15.998 7.99985 15.998C9.83406 15.998 11.1055 14.8887 11.8612 13.9313C12.7961 12.7468 11.9873 11.1967 10.6029 11.0319C9.67197 10.921 8.81094 10.921 8.01298 10.921H7.99985ZM5.54239 12.254C6.39553 12.1524 7.19099 12.1518 7.99985 12.1518C8.80871 12.1518 9.60417 12.1524 10.4573 12.254C10.7294 12.2864 10.9049 12.4402 10.9811 12.6081C11.0544 12.7695 11.0506 12.9717 10.8951 13.1687C10.2454 13.9918 9.291 14.7672 7.99985 14.7672C6.7087 14.7672 5.75428 13.9918 5.10458 13.1687C4.94906 12.9717 4.94529 12.7695 5.01858 12.6081C5.09481 12.4402 5.27027 12.2864 5.54239 12.254Z" fill="black"></path></g></svg>