<svg xmlns="http://www.w3.org/2000/svg" width="19" height="18" fill="currentColor" viewBox="0 0 19 18"><path fill-rule="evenodd" d="M5.432 2.441a.804.804 0 0 0-1.436 0l-.814 1.61a.804.804 0 0 1-.4.377l-1.581.681a.804.804 0 0 0 0 1.478l1.582.681a.804.804 0 0 1 .4.376l.813 1.61a.804.804 0 0 0 1.436 0l.814-1.61a.804.804 0 0 1 .4-.376l1.582-.681a.804.804 0 0 0 0-1.478l-1.582-.681a.804.804 0 0 1-.4-.376l-.814-1.61Zm-.718 1.255-.455.9c-.213.42-.566.753-.999.94l-.725.312.725.312c.433.187.786.52 1 .94l.454.9.456-.9c.212-.42.566-.753.999-.94l.724-.312-.724-.312a2.011 2.011 0 0 1-1-.94l-.455-.9Z" clip-rule="evenodd"></path><path d="M9.459.134a.231.231 0 0 0-.42 0L8.697.87a.231.231 0 0 1-.112.112l-.736.343a.231.231 0 0 0 0 .42l.736.343c.05.023.09.063.112.112l.344.736a.231.231 0 0 0 .419 0l.344-.736a.231.231 0 0 1 .111-.112l.737-.343a.231.231 0 0 0 0-.42L9.914.982A.231.231 0 0 1 9.803.87L9.459.133Z"></path><path fill-rule="evenodd" d="M14.714 4a1.5 1.5 0 0 0-1.5 1.5V15h4.5V5.5a1.5 1.5 0 0 0-1.5-1.5h-1.5Zm1.5 1.5h-1.5v8h1.5v-8Zm-14.5 7a1.5 1.5 0 0 1 1.5-1.5h1.5a1.5 1.5 0 0 1 1.5 1.5V15h-4.5v-2.5Zm1.5 0h1.5v1h-1.5v-1Z" clip-rule="evenodd"></path><path d="M.714 18h18v-1.5h-18V18Z"></path><path fill-rule="evenodd" d="M7.464 10a1.5 1.5 0 0 1 1.5-1.5h1.5a1.5 1.5 0 0 1 1.5 1.5v5h-4.5v-5Zm1.5 0h1.5v3.5h-1.5V10Z" clip-rule="evenodd"></path></svg>