<svg xmlns="http://www.w3.org/2000/svg" width="18" height="18" fill="currentColor" viewBox="0 0 18 18"><mask id="a" width="18" height="18" x="0" y="0" maskUnits="userSpaceOnUse" style="mask-type:alpha"><path fill="#F3F4F4" d="M0 0h18v18H0z"></path></mask><g mask="url(#a)"><path fill-rule="evenodd" d="M0 3.5A1.5 1.5 0 0 1 1.5 2h15A1.5 1.5 0 0 1 18 3.5v11a1.5 1.5 0 0 1-1.5 1.5h-15A1.5 1.5 0 0 1 0 14.5v-11Zm1.5 0h15v1.434l-6.225 4.28a2.25 2.25 0 0 1-2.55 0L1.5 4.933V3.5Zm0 3.254V14.5h15V6.754l-5.376 3.696a3.75 3.75 0 0 1-4.248 0L1.5 6.754Z" clip-rule="evenodd"></path></g></svg>