<svg xmlns="http://www.w3.org/2000/svg" width="19" height="18" fill="currentColor" viewBox="0 0 19 18"><mask id="a" width="19" height="18" x="0" y="0" maskUnits="userSpaceOnUse" style="mask-type:alpha"><path fill="#F3F4F4" d="M.571 0h18v18h-18z"></path></mask><g mask="url(#a)"><path fill-rule="evenodd" d="M18.153 1.666A1 1 0 0 0 16.905.42L1.275 5.17a1 1 0 0 0-.462 1.617l3.508 3.997v2.567a.9.9 0 0 0 .9.9H7.79l3.996 3.508a1 1 0 0 0 1.617-.46l4.75-15.632ZM2.453 6.38l13.992-4.253-4.253 13.993-3.838-3.369H5.82l7.231-7.231c.216-.216-.07-.557-.32-.382l-7.043 4.93L2.452 6.38Z" clip-rule="evenodd"></path></g></svg>