<svg xmlns="http://www.w3.org/2000/svg" width="19" height="18" fill="currentColor" viewBox="0 0 19 18"><mask id="a" width="19" height="18" x="0" y="0" maskUnits="userSpaceOnUse" style="mask-type:alpha"><path fill="#F3F4F4" d="M.857 0h18v18h-18z"></path></mask><g mask="url(#a)"><path fill-rule="evenodd" d="M16.857 2.625a2.625 2.625 0 1 1-5.25 0 2.625 2.625 0 0 1 5.25 0Zm-1.5 0a1.125 1.125 0 1 1-2.25 0 1.125 1.125 0 0 1 2.25 0Zm-5 3.175a2.25 2.25 0 1 1-4.5 0 2.25 2.25 0 0 1 4.5 0Zm-1.5 0a.75.75 0 1 1-1.5 0 .75.75 0 0 1 1.5 0Z" clip-rule="evenodd"></path><path d="M3.357 10.5a1.5 1.5 0 1 0 0-3 1.5 1.5 0 0 0 0 3Z"></path><path fill-rule="evenodd" d="M8.107 14.5a2.25 2.25 0 1 0 0-4.5 2.25 2.25 0 0 0 0 4.5Zm0-1.5a.75.75 0 1 0 0-1.5.75.75 0 0 0 0 1.5Zm6.125-1.37a2.625 2.625 0 1 0 0-5.25 2.625 2.625 0 0 0 0 5.25Zm0-1.5a1.125 1.125 0 1 0 0-2.25 1.125 1.125 0 0 0 0 2.25Zm2.625 5.245a2.625 2.625 0 1 1-5.25 0 2.625 2.625 0 0 1 5.25 0Zm-1.5 0a1.125 1.125 0 1 1-2.25 0 1.125 1.125 0 0 1 2.25 0Z" clip-rule="evenodd"></path></g></svg>