<svg xmlns="http://www.w3.org/2000/svg" width="19" height="18" fill="currentColor" viewBox="0 0 19 18"><mask id="a" width="19" height="18" x="0" y="0" maskUnits="userSpaceOnUse" style="mask-type:alpha"><path fill="#F3F4F4" d="M.429 0h18v18h-18z"></path></mask><g mask="url(#a)"><path fill-rule="evenodd" d="M8.622 0a6.196 6.196 0 0 0-6.193 6.194V17.59a.41.41 0 0 0 .7.29l3.364-3.364h4.258a6.194 6.194 0 0 0 6.194-6.193V0H8.622Zm7.072 1.25H8.622a4.943 4.943 0 0 0-4.943 4.944v9.368l1.93-1.93a1.25 1.25 0 0 1 .884-.366h4.258a4.944 4.944 0 0 0 4.944-4.943V1.25Z" clip-rule="evenodd"></path><path fill-rule="evenodd" d="M9.554.375v7h7v1.25h-8.25V.375h1.25Z" clip-rule="evenodd"></path><path fill-rule="evenodd" d="M16.37.558a.625.625 0 0 1 0 .884L3.43 14.384l-.884-.884L15.487.558a.625.625 0 0 1 .884 0Z" clip-rule="evenodd"></path></g></svg>