<svg xmlns="http://www.w3.org/2000/svg" width="19" height="18" fill="currentColor" viewBox="0 0 19 18"><path fill-rule="evenodd" d="M12.143 7V1.5h1a.75.75 0 0 0 0-1.5h-8a.75.75 0 1 0 0 1.5h1V7L.499 14.734C-.39 16.094.484 18 1.994 18h14.297c1.51 0 2.383-1.905 1.496-3.266L12.143 7Zm-1.212.884A1.5 1.5 0 0 1 10.643 7V1.5h-3V7a1.5 1.5 0 0 1-.289.884L5.941 9.822h6.404L10.93 7.884Zm2.508 3.438H4.846L1.74 15.578a.73.73 0 0 0-.029.675c.102.222.226.247.283.247h14.297c.056 0 .18-.025.283-.247a.73.73 0 0 0-.029-.675l-3.106-4.256Z" clip-rule="evenodd"></path></svg>